<svg id="Capa_1" enable-background="new 0 0 512.038 512.038" height="512" viewBox="0 0 512.038 512.038" width="512" xmlns="http://www.w3.org/2000/svg"><g id="XMLID_1792_"><g id="XMLID_2_"><path id="XMLID_168_" d="m486.913 188.571c-7.168-8.121-11.115-18.56-11.115-29.392 0-.667-.03-1.327-.051-1.99 29.177-22.38 42.37-59.652 33.629-95.538-1.146-4.704-5.518-7.905-10.33-7.614-29.493 1.816-56.526 17.896-72.409 42.566-4.894-1.193-10-1.841-15.256-1.841h-17.348c-5.256 0-10.362.647-15.255 1.841-15.882-24.67-42.916-40.751-72.41-42.566-4.824-.294-9.184 2.91-10.33 7.614-8.741 35.885 4.452 73.157 33.63 95.538-.02.663-.051 1.322-.051 1.99 0 10.832-3.947 21.271-11.115 29.392l-16.737 18.963c-3.495 3.959-3.309 9.954.426 13.689 1.714 1.714 3.463 3.375 5.242 4.983h-72.817c-10.078 0-19.833 1.405-29.083 4.026-10.824-6.822-23.226-10.409-36.175-10.409-13.912 0-27.303 4.179-38.741 12.095-9.03 6.278-20.096 9.27-31.131 8.444-24.187-1.823-43.647-22.271-44.305-46.553-.023-.821-.024-1.661-.004-2.497.205-8.729-4.973-16.256-13.19-19.173-8.229-2.922-17.004-.342-22.357 6.573-13.159 16.997-19.942 37.376-19.619 58.935.368 24.489 10.2 47.582 27.686 65.024 17.484 17.441 40.602 27.217 65.093 27.526.405.005.809.008 1.214.008 11.835 0 23.397-2.19 34.219-6.423-.261 3.04-.402 6.113-.402 9.219v115.018c0 5.522 4.478 10 10 10h90.333c5.523 0 10-4.478 10-10v-.741c0-10.894-3.643-21.326-10.333-29.793v-35.688h52.414v66.222c0 5.522 4.478 10 10 10h90.491c5.522 0 10-4.478 10-10v-.741c0-10.895-3.644-21.327-10.334-29.794v-37.729c6.766-1.566 13.316-4.012 19.429-7.3 4.863-2.617 6.685-8.681 4.068-13.545-2.616-4.864-8.681-6.684-13.545-4.068-8.458 4.551-18.045 6.956-27.724 6.956h-3.135c23.148-27.643 36.298-62.363 37.039-99.146 2.06.089 4.122.14 6.184.14 6.192 0 12.382-.411 18.531-1.213v24.332c0 5.523 4.477 10 10 10 5.522 0 10-4.477 10-10v-28.411c22.716-6.357 44.151-18.443 61.985-36.277 3.734-3.734 3.921-9.729.426-13.689zm4.606-113.487c2.638 22.079-4.949 44.016-20.526 59.716-5.159-12.567-14.177-23.151-25.576-30.275 10.956-15.343 27.584-25.98 46.102-29.441zm-177.623 0c18.518 3.46 35.147 14.098 46.102 29.441-11.399 7.124-20.416 17.707-25.575 30.275-15.577-15.7-23.165-37.637-20.527-59.716zm-278.723 116.222c-.017 1.019-.012 2.041.016 3.045.453 16.759 7.123 32.736 18.782 44.988.021.023.044.043.065.065-.28 10.693 1.678 21.272 5.69 31.06-9.086 1.207-17.891 4.04-25.986 8.377-8.423-11.809-13.501-26.121-13.732-41.495-.252-16.828 4.99-32.737 15.165-46.04zm57.868 118.894c-16.835-.213-32.414-6.235-44.83-16.112 8.522-3.528 17.866-4.939 27.232-4.015 3.91.392 7.681-1.551 9.645-4.952 1.963-3.402 1.753-7.639-.536-10.829-4.267-5.946-7.286-12.638-8.972-19.673 7.038 3.146 14.599 5.099 22.403 5.687 15.616 1.178 31.258-3.073 44.034-11.954 8.061-5.579 17.516-8.528 27.342-8.528 3.734 0 7.401.428 10.956 1.254-21.8 12.927-38.636 33.379-46.889 57.757-12.071 7.619-25.965 11.55-40.385 11.365zm117.49 117.833c2.73 2.906 4.779 6.307 6.061 9.986h-19.342c-1.459-7.478-4.668-14.506-9.431-20.534v-35.688h20v39.389c.001 2.544.97 4.992 2.712 6.847zm139.135 9.986c-1.459-7.479-4.668-14.507-9.432-20.535l.001-35.687h20.156v39.389c0 2.544.97 4.993 2.712 6.847 2.73 2.906 4.779 6.307 6.061 9.986zm-25.673-69.368c-2.376 1.897-3.759 4.773-3.759 7.814l.001 44.722c0 2.544.97 4.992 2.711 6.847 2.73 2.906 4.779 6.307 6.061 9.986h-28.773v-81.055c0-5.522-4.478-10-10-10s-10 4.478-10 10v4.833h-62.742c16.706-16.624 26.661-39.521 26.661-64.36 0-5.522-4.477-10-10-10-5.522 0-10 4.478-10 10 0 30.982-19.838 58.107-49.363 67.498-4.15 1.319-6.97 5.174-6.97 9.529v46.722c0 2.544.97 4.992 2.711 6.847 2.73 2.906 4.779 6.307 6.061 9.986h-28.772v-105.019c0-47.859 38.937-86.796 86.796-86.796h101.317c12.875 6.841 26.587 11.563 40.621 14.17-.301 42.38-19.414 81.797-52.561 108.276zm-.78-155.194 10.283-11.651c10.396-11.778 16.121-26.916 16.121-42.626 0-24.491 19.925-44.416 44.416-44.416h17.348c24.491 0 44.417 19.925 44.417 44.416 0 15.71 5.726 30.848 16.121 42.626l10.282 11.651c-45.583 39.125-113.404 39.125-158.988 0z"/><path id="XMLID_218_" d="m381 156.019c-2.63 0-5.21 1.069-7.07 2.93-1.86 1.86-2.93 4.44-2.93 7.07s1.069 5.21 2.93 7.069c1.86 1.86 4.44 2.931 7.07 2.931s5.21-1.07 7.069-2.931c1.86-1.859 2.931-4.439 2.931-7.069s-1.07-5.21-2.931-7.07c-1.859-1.861-4.439-2.93-7.069-2.93z"/><path id="XMLID_219_" d="m425 156.019c-2.63 0-5.21 1.069-7.07 2.93-1.86 1.86-2.93 4.44-2.93 7.07s1.069 5.21 2.93 7.069c1.86 1.86 4.44 2.931 7.07 2.931s5.21-1.07 7.069-2.931c1.86-1.859 2.931-4.439 2.931-7.069s-1.07-5.21-2.931-7.07c-1.859-1.861-4.439-2.93-7.069-2.93z"/><path id="XMLID_225_" d="m403.01 196.359c-2.63 0-5.21 1.06-7.07 2.93-1.859 1.86-2.93 4.431-2.93 7.07 0 2.63 1.07 5.21 2.93 7.07 1.86 1.859 4.44 2.93 7.07 2.93s5.21-1.07 7.07-2.93c1.859-1.87 2.93-4.441 2.93-7.07 0-2.63-1.07-5.21-2.93-7.07-1.86-1.871-4.44-2.93-7.07-2.93z"/><path id="XMLID_226_" d="m425.56 320.549c-2.64 0-5.21 1.06-7.069 2.92-1.86 1.859-2.931 4.439-2.931 7.069 0 2.641 1.07 5.21 2.931 7.08 1.859 1.86 4.439 2.931 7.069 2.931s5.21-1.07 7.07-2.931c1.86-1.87 2.93-4.439 2.93-7.08 0-2.63-1.069-5.21-2.93-7.069-1.86-1.86-4.44-2.92-7.07-2.92z"/></g></g></svg>