<svg id="Capa_1" enable-background="new 0 0 512 512" height="512" viewBox="0 0 512 512" width="512" xmlns="http://www.w3.org/2000/svg"><g id="XMLID_33_"><g id="XMLID_4_"><path id="XMLID_12_" d="m401.321 59.01c0-2.64-1.06-5.21-2.92-7.07-1.87-1.87-4.44-2.93-7.07-2.93-2.64 0-5.21 1.06-7.08 2.93-1.86 1.86-2.92 4.43-2.92 7.07 0 2.63 1.06 5.21 2.92 7.07 1.87 1.86 4.44 2.93 7.08 2.93 2.63 0 5.2-1.07 7.07-2.93 1.86-1.86 2.92-4.44 2.92-7.07z"/><path id="XMLID_105_" d="m496.845 62.627-58.285-38.947c-10.771-14.367-27.935-23.68-47.233-23.68-32.537 0-59.007 26.47-59.007 59.006v101.643c-15.241-11.937-34.422-19.062-55.237-19.062h-177.372c-5.523 0-10 4.477-10 10 0 21.072 3.877 41.253 10.936 59.882h-84.333c-5.523 0-10 4.477-10 10 0 36.427 23.499 68.503 57.737 79.687 23.835 54.37 71.102 95.498 128.074 111.553 3.273 15.812 12.631 29.625 26.144 38.59v40.701h-21.008c-5.523 0-10 4.477-10 10s4.477 10 10 10h119.27c5.523 0 10-4.477 10-10s-4.477-10-10-10h-21.063v-33.594c15.279-10.959 30.724-34.926 32.419-55.892 6.387-2.882 12.628-6.093 18.673-9.644 4.762-2.797 6.355-8.926 3.558-13.688s-8.926-6.354-13.688-3.558c-24.845 14.595-53.24 23.001-82.116 24.312-4.618.21-8.491 3.558-9.366 8.098-2.035 10.561-8.009 19.75-16.679 25.891-9.853-6.983-16.192-17.889-17.268-30.085-.376-4.265-3.424-7.816-7.582-8.835-55.258-13.535-101.148-53.121-122.753-105.892-1.192-2.91-3.682-5.089-6.723-5.885-24.768-6.48-42.938-27.046-46.845-51.758h82.656c28.597 53.285 84.855 89.604 149.444 89.604h17.885c49.484 0 89.743-40.259 89.743-89.744 0-18.01-5.337-34.794-14.506-48.864v-123.46c0-21.508 17.499-39.006 39.007-39.006s39.006 17.498 39.006 39.006c0 14.747-8.18 28.072-21.347 34.776-3.353 1.707-5.464 5.151-5.463 8.914l.015 72.458c.001 2.904 1.263 5.664 3.46 7.563 11.271 9.744 17.735 23.869 17.735 38.753 0 33.854-9.508 66.798-27.496 95.273-2.949 4.669-1.555 10.846 3.114 13.795 1.658 1.047 3.505 1.547 5.332 1.547 3.316 0 6.561-1.65 8.463-4.661 20.011-31.676 30.587-68.314 30.587-105.955 0-19.122-7.67-37.342-21.196-50.688l-.013-62.329c4.169-2.707 7.929-5.888 11.223-9.453h51.064c8.81 0 16.447-5.664 19.005-14.095 2.557-8.429-.646-17.382-7.971-22.277zm-211.215 378.177c-7.839-5.426-13.973-13.084-17.546-21.896 12.771-1.422 25.381-4.091 37.616-7.933-3.947 11.358-12.242 23.451-20.07 29.829zm-31.364-4.924c5.296 8.839 12.551 16.463 21.202 22.186v33.934h-37.199v-40.687c6.299-4.175 11.692-9.413 15.997-15.433zm22.817-134.806h-17.885c-30.591 0-59.062-9.243-82.777-25.074h60.603c5.523 0 10-4.477 10-10s-4.477-10-10-10h-67.332c-7.883 0-15.636-1.941-22.554-5.582-10.681-12.097-19.437-25.931-25.789-41.017 10.656 6.775 23.308 10.666 36.842 10.666h67.332c5.523 0 10-4.477 10-10s-4.477-10-10-10h-67.332c-23.256 0-42.825-16.221-47.445-38.479h166.337c38.456 0 69.743 31.287 69.743 69.743s-31.287 69.743-69.743 69.743zm169.792-222.074c2.256-6.297 3.458-13.04 3.458-19.994 0-1.169-.044-2.327-.111-3.479l35.128 23.473z"/><path id="XMLID_111_" d="m377.301 347c-2.63 0-5.21 1.07-7.07 2.93s-2.93 4.43-2.93 7.07c0 2.63 1.07 5.21 2.93 7.07s4.44 2.93 7.07 2.93c2.64 0 5.21-1.07 7.08-2.93 1.86-1.86 2.92-4.44 2.92-7.07s-1.06-5.21-2.92-7.07c-1.87-1.86-4.439-2.93-7.08-2.93z"/></g></g></svg>