<svg id="Capa_1" enable-background="new 0 0 512.009 512.009" height="512" viewBox="0 0 512.009 512.009" width="512" xmlns="http://www.w3.org/2000/svg"><g id="XMLID_74_"><g id="XMLID_981_"><path id="XMLID_1072_" d="m415.421 51.958h-8.315c-8.298 0-16.406-3.381-22.246-9.275l-8.369-8.447c-2.175-2.195-4.665-4.04-7.361-5.493v-18.743c0-5.523-4.478-10-10-10s-10 4.477-10 10v14.958h-20.5v-14.958c0-5.523-4.478-10-10-10s-10 4.477-10 10v19.043c-11.961 6.15-20.167 18.61-20.167 32.959v31.998c0 5.523 4.478 10 10 10s10-4.477 10-10v-31.998c0-9.398 7.646-17.044 17.044-17.044h28.731c3.001 0 5.934 1.223 8.045 3.354l8.369 8.447c5.018 5.064 11.063 8.983 17.633 11.578-2.383 4.403-3.739 9.439-3.739 14.787v9.376c0 4.578 1 8.924 2.781 12.844-9.414 3.631-16.115 12.769-16.115 23.448v31.435c-22.815 4.63-40.041 24.84-40.041 49.001s17.226 44.372 40.041 49.001v53.113c0 30.542-23.857 55.961-54.312 57.869-5.27.33-9.375 4.7-9.375 9.98v112.817h-20.666v-112.666c0-5.523-4.477-10-10-10h-69.004c.618-4.045.941-8.168.941-12.342 0-5.523-4.478-10-10-10-5.523 0-10 4.477-10 10 0 18.727-8.451 36.096-23.187 47.655l-2.319 1.819c-2.417 1.896-3.828 4.797-3.828 7.868v77.667h-20.666v-90.667c0-.753-.085-1.503-.254-2.237l-11.319-49.315c-1.168-5.09-1.761-10.318-1.761-15.542 0-20.639 9.072-39.365 23.617-52.166 9.125 13.925 24.732 22.502 41.682 22.502 2.372 0 4.77-.168 7.18-.512 23.697-3.387 41.248-23.106 42.813-46.143l37.167-5.047c17.411-2.365 30.541-17.398 30.541-34.969v-33.913c0-5.523-4.478-10-10-10s-10 4.477-10 10v33.912c0 7.613-5.689 14.127-13.232 15.151l-90.89 12.343c-29.513 3.52-54.26 21.172-67.786 45.694-27.587 3.145-49.092 26.619-49.092 55.034v65.866c0 5.523 4.478 10 10 10s10-4.477 10-10v-65.867c0-14.118 8.309-26.328 20.292-32.008-1.495 6.483-2.292 13.219-2.292 20.124 0 6.727.763 13.461 2.269 20.016l11.065 48.21v99.534c0 5.523 4.478 10 10 10h81.333c5.523 0 10-4.477 10-10v-112.667h46.729v112.667c0 5.523 4.478 10 10 10h81.396c5.522 0 10-4.477 10-10v-135.476c14.199-14.171 22.958-33.739 22.958-55.19v-182.551c0-2.826 2.299-5.125 5.125-5.125h19.084c16.06 0 29.125-13.065 29.125-29.125v-13.458c0-16.06-13.065-29.126-29.125-29.126zm-228.643 213.299.171-.021 33.271-4.518c-2.536 11.987-12.331 21.73-25.109 23.556-11.754 1.68-23.022-3.636-29.27-13.108 6.479-2.991 13.511-5.031 20.937-5.909zm-7.316 226.752v-72.83c8.73-7.185 15.71-15.941 20.667-25.71v98.54zm168.792 0h-20.729v-103.995c7.331-1.362 14.285-3.766 20.729-7.021zm76.292-397.468c0 4.983-4.016 9.039-8.979 9.118-6.09-.079-11.021-5.051-11.021-11.159v-9.375c0-6.108 4.931-11.08 11.021-11.159 4.964.079 8.979 4.135 8.979 9.118zm-73.375 114.687c0-13.051 8.381-24.177 20.041-28.294v56.588c-11.66-4.117-20.041-15.242-20.041-28.294z"/><path id="XMLID_1104_" d="m352.535 92.574c1.859-1.87 2.93-4.45 2.93-7.07 0-2.63-1.07-5.21-2.93-7.08-1.86-1.86-4.44-2.92-7.07-2.92-2.641 0-5.21 1.06-7.07 2.92-1.87 1.87-2.93 4.44-2.93 7.08 0 2.63 1.06 5.2 2.93 7.07 1.86 1.86 4.43 2.92 7.07 2.92 2.629 0 5.209-1.06 7.07-2.92z"/><path id="XMLID_1131_" d="m274.462 312.78c0 20.161 16.402 36.562 36.562 36.562s36.562-16.402 36.562-36.562c0-20.161-16.402-36.562-36.562-36.562-20.159-.001-36.562 16.401-36.562 36.562zm36.563-16.563c9.133 0 16.562 7.43 16.562 16.562 0 9.133-7.43 16.562-16.562 16.562s-16.562-7.43-16.562-16.562c-.001-9.132 7.429-16.562 16.562-16.562z"/><path id="XMLID_1136_" d="m298.464 149.004c2.63 0 5.21-1.07 7.07-2.93 1.859-1.87 2.93-4.44 2.93-7.07s-1.07-5.21-2.93-7.07c-1.86-1.87-4.44-2.93-7.07-2.93s-5.21 1.06-7.07 2.93c-1.859 1.86-2.93 4.43-2.93 7.07 0 2.63 1.07 5.21 2.93 7.07s4.441 2.93 7.07 2.93z"/></g></g></svg>